<?xml version="1.0" encoding="utf-8"?>
<!-- Generator: Adobe Illustrator 16.0.0, SVG Export Plug-In . SVG Version: 6.00 Build 0)  -->
<!DOCTYPE svg PUBLIC "-//W3C//DTD SVG 1.1//EN" "http://www.w3.org/Graphics/SVG/1.1/DTD/svg11.dtd">
<svg version="1.1" id="Layer_1" xmlns="http://www.w3.org/2000/svg" xmlns:xlink="http://www.w3.org/1999/xlink" x="0px" y="0px"
	 width="250px" height="500px" viewBox="0 0 250 500" enable-background="new 0 0 250 500" xml:space="preserve">
<g>
	<path d="M180.584,372.943c-1.178-0.001-2.135,0.955-2.135,2.135c0,1.178,0.956,2.134,2.135,2.134c1.18,0,2.134-0.956,2.134-2.134
		C182.716,373.9,181.762,372.945,180.584,372.943z"/>
	<path d="M113.583,410.809c-5.707,4.866-14.103,4.871-19.814,0.009L42,366.981v62.732c-0.003,1.963,0.49,3.895,1.43,5.616
		l29.804-30.483c0.621-0.646,1.541-0.909,2.41-0.69c0.869,0.221,1.554,0.89,1.793,1.754c0.239,0.864-0.004,1.789-0.636,2.424
		l-30.096,30.785c2.034,1.531,4.51,2.359,7.057,2.355h99.787c2.539,0.004,5.01-0.819,7.041-2.346l-30.263-30.789
		c-0.957-0.983-0.939-2.557,0.04-3.52c0.979-0.962,2.551-0.952,3.52,0.021l29.983,30.507c0.946-1.728,1.441-3.665,1.439-5.635
		v-35.703c-8.182-0.417-16.091-3.073-22.863-7.68L113.583,410.809z"/>
	<path d="M154.454,350.94h29.633c1.094,0,2.068-0.694,2.428-1.729l4.513-13.021h-38.846L154.454,350.94z"/>
	<path d="M167.803,308.544c-16.081,0-30.619,9.565-36.983,24.333c-6.365,14.768-3.334,31.905,7.708,43.595
		c1.575,1.667,3.285,3.197,5.115,4.578c0.116,0.073,0.226,0.156,0.328,0.249c6.898,5.093,15.257,7.826,23.832,7.791
		c22.242,0,40.272-18.03,40.272-40.272S190.045,308.544,167.803,308.544z M159.748,382.199c-3.934,0-7.123-3.188-7.123-7.122
		c0-3.935,3.189-7.124,7.123-7.124c3.935,0,7.124,3.189,7.124,7.124C166.867,379.01,163.681,382.196,159.748,382.199z
		 M180.584,382.199c-3.936,0-7.125-3.188-7.125-7.122c0-3.935,3.189-7.124,7.125-7.124c3.934,0,7.123,3.189,7.123,7.124
		C187.702,379.01,184.517,382.194,180.584,382.199z M191.227,350.845c-1.055,3.042-3.922,5.083-7.142,5.085h-28.862l0.659,4.276
		c0.196,1.246,1.274,2.163,2.536,2.156H188.2c1.378,0,2.495,1.118,2.495,2.495c0,1.378-1.117,2.494-2.495,2.494h-29.782
		c-3.724,0.016-6.897-2.696-7.465-6.376l-4.82-31.27c-0.196-1.245-1.273-2.163-2.537-2.156h-2.521c-1.379,0-2.495-1.117-2.495-2.495
		s1.116-2.494,2.495-2.494h2.521c3.725-0.016,6.899,2.696,7.467,6.376l0.348,2.263h43.121c0.808,0.002,1.565,0.392,2.033,1.049
		c0.468,0.658,0.589,1.501,0.324,2.264L191.227,350.845z"/>
	<path d="M159.748,372.943c-1.178-0.001-2.134,0.955-2.134,2.135c0,1.178,0.954,2.134,2.134,2.134c1.179,0,2.134-0.956,2.134-2.134
		C161.881,373.9,160.926,372.945,159.748,372.943z"/>
	<path d="M110.355,407.004l28.034-23.777c-1.219-1.049-2.383-2.159-3.488-3.327c-7.398-7.806-11.759-18.001-12.298-28.741H53.761
		c-5.612,0.008-10.438,3.972-11.535,9.475l54.768,46.376C100.844,410.287,106.507,410.285,110.355,407.004z"/>
</g>
<g>
	<path fill="#FFFFFF" d="M180.584,110.345c-1.178-0.001-2.135,0.955-2.135,2.135c0,1.178,0.956,2.134,2.135,2.134
		c1.18,0,2.134-0.956,2.134-2.134C182.716,111.302,181.762,110.347,180.584,110.345z"/>
	<path fill="#FFFFFF" d="M113.583,148.21c-5.707,4.866-14.103,4.871-19.814,0.009L42,104.383v62.732
		c-0.003,1.963,0.49,3.895,1.43,5.616l29.804-30.483c0.621-0.646,1.541-0.909,2.41-0.69c0.869,0.221,1.554,0.89,1.793,1.754
		c0.239,0.864-0.004,1.789-0.636,2.424l-30.096,30.785c2.034,1.531,4.51,2.359,7.057,2.355h99.787
		c2.539,0.004,5.01-0.819,7.041-2.346l-30.263-30.789c-0.957-0.983-0.939-2.557,0.04-3.52c0.979-0.962,2.551-0.952,3.52,0.021
		l29.983,30.507c0.946-1.728,1.441-3.665,1.439-5.635v-35.703c-8.182-0.417-16.091-3.073-22.863-7.68L113.583,148.21z"/>
	<path fill="#FFFFFF" d="M154.454,88.342h29.633c1.094,0,2.068-0.694,2.428-1.729l4.513-13.021h-38.846L154.454,88.342z"/>
	<path fill="#FFFFFF" d="M167.803,45.946c-16.081,0-30.619,9.565-36.983,24.333c-6.365,14.768-3.334,31.905,7.708,43.595
		c1.575,1.667,3.285,3.197,5.115,4.578c0.116,0.073,0.226,0.156,0.328,0.249c6.898,5.093,15.257,7.826,23.832,7.791
		c22.242,0,40.272-18.03,40.272-40.272S190.045,45.946,167.803,45.946z M159.748,119.601c-3.934,0-7.123-3.188-7.123-7.122
		c0-3.935,3.189-7.124,7.123-7.124c3.935,0,7.124,3.189,7.124,7.124C166.867,116.412,163.681,119.598,159.748,119.601z
		 M180.584,119.601c-3.936,0-7.125-3.188-7.125-7.122c0-3.935,3.189-7.124,7.125-7.124c3.934,0,7.123,3.189,7.123,7.124
		C187.702,116.412,184.517,119.596,180.584,119.601z M191.227,88.247c-1.055,3.042-3.922,5.083-7.142,5.085h-28.862l0.659,4.276
		c0.196,1.246,1.274,2.163,2.536,2.156H188.2c1.378,0,2.495,1.118,2.495,2.495c0,1.378-1.117,2.494-2.495,2.494h-29.782
		c-3.724,0.016-6.897-2.696-7.465-6.376l-4.82-31.27c-0.196-1.245-1.273-2.163-2.537-2.156h-2.521c-1.379,0-2.495-1.117-2.495-2.495
		s1.116-2.494,2.495-2.494h2.521c3.725-0.016,6.899,2.696,7.467,6.376l0.348,2.263h43.121c0.808,0.002,1.565,0.392,2.033,1.049
		c0.468,0.658,0.589,1.501,0.324,2.264L191.227,88.247z"/>
	<path fill="#FFFFFF" d="M159.748,110.345c-1.178-0.001-2.134,0.955-2.134,2.135c0,1.178,0.954,2.134,2.134,2.134
		c1.179,0,2.134-0.956,2.134-2.134C161.881,111.302,160.926,110.347,159.748,110.345z"/>
	<path fill="#FFFFFF" d="M110.355,144.406l28.034-23.777c-1.219-1.049-2.383-2.159-3.488-3.327
		c-7.398-7.806-11.759-18.001-12.298-28.741H53.761c-5.612,0.008-10.438,3.972-11.535,9.475l54.768,46.376
		C100.844,147.689,106.507,147.687,110.355,144.406z"/>
</g>
</svg>
