<?xml version="1.0" encoding="utf-8"?>
<!-- Generator: Adobe Illustrator 16.0.0, SVG Export Plug-In . SVG Version: 6.00 Build 0)  -->
<!DOCTYPE svg PUBLIC "-//W3C//DTD SVG 1.1//EN" "http://www.w3.org/Graphics/SVG/1.1/DTD/svg11.dtd">
<svg version="1.1" id="Layer_1" xmlns="http://www.w3.org/2000/svg" xmlns:xlink="http://www.w3.org/1999/xlink" x="0px" y="0px"
	 width="250px" height="500px" viewBox="0 0 250 500" enable-background="new 0 0 250 500" xml:space="preserve">
<g>
	<path d="M195.959,407.861h-1.731v-10.383c0-9.54-7.767-17.308-17.307-17.308s-17.307,7.769-17.307,17.308v10.383h-1.731
		c-6.681,0-12.114,5.435-12.114,12.116v24.229c0,6.681,5.433,12.116,12.114,12.116h38.076c6.68,0,12.115-5.435,12.115-12.116
		v-24.229C208.073,413.296,202.639,407.861,195.959,407.861z M169.999,397.479c0-3.814,3.107-6.923,6.922-6.923
		c3.813,0,6.923,3.108,6.923,6.923v10.383h-13.845V397.479z"/>
	<path d="M135.384,419.978c0-9.346,5.728-17.369,13.847-20.769v-1.73c0-4.209,1.017-8.154,2.707-11.735
		c-5.234-3.51-11.521-5.572-18.283-5.572H74.809c-18.13,0-32.883,14.754-32.883,32.884v24.23c0,2.866,2.326,5.192,5.192,5.192
		h88.266V419.978L135.384,419.978z"/>
	<path d="M138.846,331.712c0,19.116-15.498,34.613-34.614,34.613c-19.117,0-34.614-15.497-34.614-34.613
		s15.498-34.614,34.614-34.614S138.846,312.596,138.846,331.712z"/>
</g>
<g>
	<path fill="#FFFFFF" d="M196.959,154.054h-1.731v-10.383c0-9.54-7.767-17.308-17.307-17.308s-17.307,7.769-17.307,17.308v10.383
		h-1.731c-6.681,0-12.114,5.435-12.114,12.116v24.229c0,6.681,5.433,12.117,12.114,12.117h38.076c6.68,0,12.115-5.435,12.115-12.117
		v-24.229C209.073,159.488,203.639,154.054,196.959,154.054z M170.999,143.671c0-3.814,3.107-6.923,6.922-6.923
		c3.813,0,6.923,3.109,6.923,6.923v10.383h-13.845V143.671z"/>
	<path fill="#FFFFFF" d="M136.384,166.169c0-9.345,5.728-17.369,13.847-20.769v-1.73c0-4.209,1.017-8.155,2.707-11.735
		c-5.234-3.51-11.521-5.572-18.283-5.572H75.809c-18.13,0-32.883,14.753-32.883,32.884v24.23c0,2.866,2.326,5.192,5.192,5.192
		h88.266V166.169L136.384,166.169z"/>
	<path fill="#FFFFFF" d="M139.846,77.904c0,19.116-15.498,34.613-34.614,34.613c-19.117,0-34.614-15.497-34.614-34.613
		c0-19.117,15.498-34.614,34.614-34.614S139.846,58.788,139.846,77.904z"/>
</g>
</svg>
