<?xml version="1.0" encoding="utf-8"?>
<!-- Generator: Adobe Illustrator 16.0.0, SVG Export Plug-In . SVG Version: 6.00 Build 0)  -->
<!DOCTYPE svg PUBLIC "-//W3C//DTD SVG 1.1//EN" "http://www.w3.org/Graphics/SVG/1.1/DTD/svg11.dtd">
<svg version="1.1" id="Layer_1" xmlns="http://www.w3.org/2000/svg" xmlns:xlink="http://www.w3.org/1999/xlink" x="0px" y="0px"
	 width="250px" height="250px" viewBox="0 0 250 250" enable-background="new 0 0 250 250" xml:space="preserve">
<g>
	<path fill-rule="evenodd" clip-rule="evenodd" fill="#AAA6A0" d="M94.525,139.664L56.14,206.148l36.403-73.887L94.525,139.664
		L94.525,139.664z M116.825,152.537l-54.305,94.061l61.707-96.043L116.825,152.537z"/>
	<path fill-rule="evenodd" clip-rule="evenodd" fill="#AAA6A0" d="M141.631,131.853l-28.153,48.732l42.094-52.467L141.631,131.853
		L141.631,131.853z M188.247,3.083c9.62,18.991,9.109,43.071-2.734,64.206c-9.416,16.796-59.235,70.265-68.409,84.766l44.139-76.454
		c6.982-12.093,9.201-28.033,6.276-36.615c-8.899,1.756-21.592,11.651-28.573,23.742l-44.142,76.451
		c7.971-15.195,29.367-85.073,39.207-101.625C146.391,16.729,166.99,4.248,188.247,3.083L188.247,3.083z M100.037,107.842
		L96.3,93.901l-24.387,62.687L100.037,107.842z"/>
</g>
</svg>
