<?xml version="1.0" encoding="utf-8"?>
<!-- Generator: Adobe Illustrator 16.0.0, SVG Export Plug-In . SVG Version: 6.00 Build 0)  -->
<!DOCTYPE svg PUBLIC "-//W3C//DTD SVG 1.1//EN" "http://www.w3.org/Graphics/SVG/1.1/DTD/svg11.dtd">
<svg version="1.1" id="Layer_1" xmlns="http://www.w3.org/2000/svg" xmlns:xlink="http://www.w3.org/1999/xlink" x="0px" y="0px"
	 width="100px" height="100px" viewBox="0 0 100 100" enable-background="new 0 0 100 100" xml:space="preserve">
<g id="_5">
	<path fill="#FB2F28" d="M98.011,45.311c1.978-2.027,2.677-4.979,1.818-7.678c-0.784-2.675-3.038-4.66-5.79-5.1l-24.195-3.674
		c-1.046-0.168-1.939-0.846-2.383-1.808L56.643,4.143c-1.58-3.548-5.738-5.145-9.286-3.564c-1.588,0.707-2.857,1.977-3.564,3.564
		L32.973,27.054c-0.443,0.963-1.336,1.643-2.383,1.813l-24.2,3.67c-2.751,0.442-5.002,2.426-5.787,5.1
		c-0.857,2.697-0.159,5.646,1.816,7.673l17.5,17.833c0.75,0.776,1.088,1.861,0.913,2.926L16.706,91.25
		c-0.385,2.154,0.184,4.371,1.56,6.073c2.115,2.667,5.837,3.434,8.835,1.821l21.64-11.888c0.919-0.496,2.026-0.496,2.944,0
		l21.643,11.888c1.02,0.569,2.167,0.869,3.335,0.869c2.147-0.014,4.171-1.004,5.5-2.69c1.375-1.703,1.944-3.919,1.562-6.073
		L79.6,66.068c-0.176-1.064,0.163-2.15,0.914-2.926L98.011,45.311z"/>
</g>
</svg>
