<?xml version="1.0" encoding="utf-8"?>
<!-- Generator: Adobe Illustrator 16.0.0, SVG Export Plug-In . SVG Version: 6.00 Build 0)  -->
<!DOCTYPE svg PUBLIC "-//W3C//DTD SVG 1.1//EN" "http://www.w3.org/Graphics/SVG/1.1/DTD/svg11.dtd">
<svg version="1.1" id="Layer_1" xmlns="http://www.w3.org/2000/svg" xmlns:xlink="http://www.w3.org/1999/xlink" x="0px" y="0px"
	 width="100px" height="100px" viewBox="0 0 100 100" enable-background="new 0 0 100 100" xml:space="preserve">
<g id="_1">
	<path id="Forma_1" fill="#FFFFFF" d="M10.07,35.42c1.267,0.895,5.082,3.547,11.446,7.957c6.364,4.41,11.239,7.807,14.624,10.191
		c0.38,0.261,1.17,0.828,2.38,1.699s2.21,1.584,3.01,2.125c0.8,0.541,1.77,1.144,2.91,1.813c1.013,0.614,2.089,1.12,3.21,1.506
		c0.897,0.315,1.839,0.485,2.79,0.5h0.11c0.951-0.015,1.894-0.185,2.79-0.5c1.121-0.386,2.197-0.892,3.21-1.506
		c1.14-0.667,2.11-1.271,2.91-1.813c0.8-0.541,1.8-1.248,3.01-2.125c1.21-0.875,2-1.439,2.38-1.699
		c3.42-2.385,12.131-8.435,26.131-18.148c2.67-1.854,4.979-4.182,6.81-6.868c1.759-2.462,2.716-5.406,2.74-8.432
		c-0.038-4.92-4.021-8.898-8.94-8.931H9.4c-2.542-0.145-5,0.933-6.616,2.9c-1.591,2.078-2.41,4.645-2.318,7.26
		c0,2.346,1.024,4.887,3.072,7.623C5.341,31.471,7.548,33.65,10.07,35.42z M94.939,41.394C82.73,49.661,73.46,56.082,67.13,60.659
		c-2.11,1.563-3.84,2.784-5.16,3.657c-1.673,1.057-3.44,1.955-5.28,2.684c-1.936,0.855-4.023,1.32-6.14,1.366h-0.11
		C48.323,68.32,46.237,67.855,44.3,67c-1.839-0.728-3.607-1.625-5.28-2.682c-1.32-0.872-3.04-2.092-5.16-3.657
		c-5.03-3.686-14.282-10.106-27.755-19.265c-2.078-1.375-3.974-3.007-5.643-4.857v44.334c0.016,4.928,4.007,8.918,8.934,8.934H91.59
		c4.929-0.016,8.922-4.005,8.939-8.934V36.537C98.87,38.376,96.993,40.008,94.939,41.394L94.939,41.394z"/>
</g>
</svg>
