<?xml version="1.0" encoding="utf-8"?>
<!-- Generator: Adobe Illustrator 23.0.6, SVG Export Plug-In . SVG Version: 6.00 Build 0)  -->
<svg version="1.1" id="Layer_1" xmlns="http://www.w3.org/2000/svg" xmlns:xlink="http://www.w3.org/1999/xlink" x="0px" y="0px"
	 viewBox="0 0 145 29" style="enable-background:new 0 0 145 29;" xml:space="preserve">
<style type="text/css">
	.st0{fill:#FA0028;}
	.st1{fill-rule:evenodd;clip-rule:evenodd;fill:#FA0028;}
	.st2{clip-path:url(#SVGID_2_);fill:#FFFFFF;}
	.st3{fill-rule:evenodd;clip-rule:evenodd;fill:#71C749;}
	.st4{fill:#FFFFFF;}
</style>
<g>
	<path class="st0" d="M144.2,27.7c0.4-0.4,0.6-0.9,0.6-1.4v-8.7l-3.3-1.4l-0.7,4.2v6c0,0.6,0.2,1.1,0.6,1.4c0.4,0.4,0.9,0.6,1.4,0.6
		C143.3,28.3,143.8,28.1,144.2,27.7z M130.4,23.9c-1.1-0.6-1.9-1.5-2.5-2.6c-0.6-1.1-0.9-2.4-0.9-3.7c0-1.4,0.3-2.7,0.9-3.8
		c0.6-1.1,1.5-2,2.5-2.6c1.1-0.6,2.2-1,3.5-1c1.3,0,2.5,0.3,3.6,1c1,0.6,1.9,1.5,2.5,2.6c0.6,1.1,0.9,2.4,0.9,3.8
		c0,1.4-0.3,2.6-0.9,3.7c-0.6,1.1-1.4,2-2.5,2.6c-1,0.6-2.2,1-3.6,1C132.6,24.9,131.4,24.6,130.4,23.9z M138.3,27
		c1.5-1,2.7-2.2,3.6-3.9c0.9-1.6,1.3-3.5,1.3-5.5h1.5c0-2.1-0.5-3.9-1.4-5.6c-1-1.6-2.2-2.9-3.9-3.9c-1.6-1-3.5-1.4-5.5-1.4
		c-2,0-3.9,0.5-5.5,1.4c-1.6,1-2.9,2.3-3.9,3.9c-1,1.6-1.4,3.5-1.4,5.6c0,2.1,0.4,3.9,1.3,5.5c0.9,1.6,2.1,2.9,3.6,3.9
		c1.5,1,3.2,1.4,5.1,1.4C135.1,28.4,136.8,28,138.3,27z M116.6,11c0.5,0,1-0.2,1.3-0.5c0.3-0.3,0.5-0.7,0.5-1.2
		c0-0.5-0.2-0.9-0.5-1.3c-0.3-0.3-0.8-0.5-1.3-0.5h-9.1c-0.5,0-1,0.2-1.3,0.5c-0.3,0.3-0.5,0.7-0.5,1.3c0,0.5,0.2,0.9,0.5,1.2
		c0.3,0.3,0.8,0.5,1.3,0.5H116.6z M117,28.3c0.7,0,1.2-0.2,1.7-0.5c0.4-0.4,0.6-0.8,0.6-1.4c0-0.6-0.2-1-0.5-1.4
		c-0.3-0.4-0.7-0.5-1.2-0.5h-1.3c-0.8,0-1.5-0.4-2.1-1.1c-0.6-0.7-0.9-1.6-0.9-2.6V2c0-0.6-0.2-1-0.5-1.4c-0.4-0.4-0.8-0.5-1.4-0.5
		c-0.6,0-1,0.2-1.4,0.5c-0.4,0.4-0.5,0.8-0.5,1.4v18.7c0,1.4,0.3,2.7,0.9,3.9c0.6,1.2,1.4,2.1,2.5,2.7c1,0.7,2.2,1,3.5,1H117z
		 M102,27.7c0.4-0.4,0.6-0.9,0.6-1.4v-8.7l-3.3-1.4l-0.7,4.2v6c0,0.6,0.2,1.1,0.6,1.4c0.4,0.4,0.9,0.6,1.4,0.6
		C101.1,28.3,101.6,28.1,102,27.7z M88.2,23.9c-1.1-0.6-1.9-1.5-2.5-2.6c-0.6-1.1-0.9-2.4-0.9-3.7c0-1.4,0.3-2.7,0.9-3.8
		c0.6-1.1,1.5-2,2.5-2.6c1.1-0.6,2.2-1,3.5-1c1.3,0,2.5,0.3,3.6,1c1,0.6,1.9,1.5,2.5,2.6c0.6,1.1,0.9,2.4,0.9,3.8
		c0,1.4-0.3,2.6-0.9,3.7c-0.6,1.1-1.4,2-2.5,2.6c-1,0.6-2.2,1-3.6,1C90.4,24.9,89.2,24.6,88.2,23.9z M96.1,27c1.5-1,2.7-2.2,3.6-3.9
		c0.9-1.6,1.3-3.5,1.3-5.5h1.5c0-2.1-0.5-3.9-1.4-5.6c-1-1.6-2.2-2.9-3.9-3.9c-1.6-1-3.5-1.4-5.5-1.4c-2,0-3.9,0.5-5.5,1.4
		c-1.6,1-2.9,2.3-3.9,3.9c-1,1.6-1.4,3.5-1.4,5.6c0,2.1,0.4,3.9,1.3,5.5c0.9,1.6,2.1,2.9,3.6,3.9c1.5,1,3.2,1.4,5.1,1.4
		C92.9,28.4,94.6,28,96.1,27z M61.8,27.7c0.4-0.4,0.5-0.9,0.5-1.4V15.1c0-1.8-0.3-3.3-1-4.6c-0.6-1.3-1.5-2.2-2.7-2.9
		c-1.2-0.7-2.5-1-4-1c-1.5,0-2.9,0.4-4.1,1.1c-1.2,0.7-2.1,1.7-2.8,3c-0.7,1.3-1,2.8-1,4.5h2.5c0-1.5,0.4-2.7,1.3-3.6
		c0.9-0.9,2-1.4,3.4-1.4c1.3,0,2.4,0.4,3.2,1.2c0.8,0.8,1.2,2,1.2,3.7v11.2c0,0.6,0.2,1.1,0.6,1.4c0.4,0.4,0.9,0.6,1.4,0.6
		C60.9,28.3,61.4,28.1,61.8,27.7z M48.7,27.7c0.4-0.4,0.5-0.9,0.5-1.4V8.9c0-0.6-0.2-1.1-0.5-1.5c-0.4-0.4-0.9-0.5-1.5-0.5
		c-0.6,0-1.1,0.2-1.4,0.5c-0.4,0.4-0.6,0.9-0.6,1.5v17.5c0,0.6,0.2,1.1,0.6,1.4c0.4,0.4,0.9,0.6,1.4,0.6
		C47.8,28.3,48.3,28.1,48.7,27.7z M74.8,27.7c0.4-0.4,0.5-0.9,0.5-1.4V15.1c0-1.8-0.3-3.3-1-4.6c-0.6-1.3-1.5-2.2-2.7-2.9
		c-1.2-0.7-2.5-1-4-1c-1.7,0-3.2,0.4-4.5,1.1c-1.3,0.7-2.3,1.7-3.1,3c-0.7,1.3-1.1,2.8-1.1,4.5h3.3c0-1.5,0.4-2.7,1.3-3.6
		c0.9-0.9,2-1.4,3.4-1.4c1.3,0,2.4,0.4,3.2,1.2c0.8,0.8,1.2,2,1.2,3.7v11.2c0,0.6,0.2,1.1,0.6,1.4c0.4,0.4,0.9,0.6,1.4,0.6
		C74,28.3,74.5,28.1,74.8,27.7z M38.7,27.7c0.4-0.4,0.6-0.9,0.6-1.4v-8.7L36,16.2l-0.7,4.2v6c0,0.6,0.2,1.1,0.6,1.4
		c0.4,0.4,0.9,0.6,1.4,0.6C37.8,28.3,38.3,28.1,38.7,27.7z M24.9,23.9c-1.1-0.6-1.9-1.5-2.5-2.6c-0.6-1.1-0.9-2.4-0.9-3.7
		c0-1.4,0.3-2.7,0.9-3.8c0.6-1.1,1.5-2,2.5-2.6c1.1-0.6,2.2-1,3.5-1c1.3,0,2.5,0.3,3.6,1c1,0.6,1.9,1.5,2.5,2.6
		c0.6,1.1,0.9,2.4,0.9,3.8c0,1.4-0.3,2.6-0.9,3.7c-0.6,1.1-1.4,2-2.5,2.6c-1,0.6-2.2,1-3.6,1C27.2,24.9,26,24.6,24.9,23.9z M32.8,27
		c1.5-1,2.7-2.2,3.6-3.9c0.9-1.6,1.3-3.5,1.3-5.5h1.5c0-2.1-0.5-3.9-1.4-5.6c-1-1.6-2.2-2.9-3.9-3.9c-1.6-1-3.5-1.4-5.5-1.4
		c-2,0-3.9,0.5-5.5,1.4c-1.6,1-2.9,2.3-3.9,3.9c-1,1.6-1.4,3.5-1.4,5.6c0,2.1,0.4,3.9,1.3,5.5c0.9,1.6,2.1,2.9,3.6,3.9
		c1.5,1,3.2,1.4,5.1,1.4C29.6,28.4,31.3,28,32.8,27z M11.2,11c0.5,0,1-0.2,1.3-0.5c0.3-0.3,0.5-0.7,0.5-1.2c0-0.5-0.2-0.9-0.5-1.3
		c-0.3-0.3-0.8-0.5-1.3-0.5H2.1c-0.5,0-1,0.2-1.3,0.5C0.4,8.4,0.3,8.8,0.3,9.3c0,0.5,0.2,0.9,0.5,1.2C1.1,10.8,1.6,11,2.1,11H11.2z
		 M11.5,28.3c0.7,0,1.2-0.2,1.7-0.5c0.4-0.4,0.6-0.8,0.6-1.4c0-0.6-0.2-1-0.5-1.4c-0.3-0.4-0.7-0.5-1.2-0.5h-1.3
		c-0.8,0-1.5-0.4-2.1-1.1c-0.6-0.7-0.9-1.6-0.9-2.6V2c0-0.6-0.2-1-0.5-1.4C6.9,0.2,6.5,0,5.9,0c-0.6,0-1,0.2-1.4,0.5
		C4.1,0.9,3.9,1.4,3.9,2v18.7c0,1.4,0.3,2.7,0.9,3.9c0.6,1.2,1.4,2.1,2.5,2.7c1,0.7,2.2,1,3.5,1H11.5z"/>
	<ellipse transform="matrix(0.7071 -0.7071 0.7071 0.7071 -4.5311 25.4358)" class="st1" cx="28.4" cy="18.2" rx="10.8" ry="10.8"/>
	<g>
		<defs>
			<path id="SVGID_1_" d="M21.9,17c-0.1,0.4-0.1,0.8-0.1,1.2c0,3.9,3.2,7.2,7.1,7.2c3.2,0,5.8-2,6.8-4.9c-0.6,3.4-3.5,5.9-7,5.9
				c-3.9,0-7.1-3.2-7.1-7.2C21.5,18.4,21.7,17.7,21.9,17z"/>
		</defs>
		<clipPath id="SVGID_2_">
			<use xlink:href="#SVGID_1_"  style="overflow:visible;"/>
		</clipPath>
		<rect x="21.1" y="16.5" class="st2" width="15.1" height="10.3"/>
	</g>
	<polygon class="st3" points="28.7,6.9 36.4,1.8 30.4,8.6 35.9,13.1 28.9,10.3 22.1,14.3 26.9,8.4 22.1,3.2 	"/>
	<polygon class="st4" points="28.7,6.9 28.9,7.2 34.4,3.5 29.9,8.7 33.9,11.9 28.8,9.9 23.7,13 27.4,8.4 23.9,4.6 28.7,7.3 
		28.9,7.2 28.7,6.9 28.8,6.5 20.3,1.8 26.5,8.4 20.5,15.7 28.9,10.7 38,14.4 30.9,8.6 38.4,0.1 28.5,6.6 28.7,6.9 28.8,6.5 	"/>
</g>
</svg>
