<?xml version="1.0" encoding="utf-8"?>
<!-- Generator: Adobe Illustrator 16.0.0, SVG Export Plug-In . SVG Version: 6.00 Build 0)  -->
<!DOCTYPE svg PUBLIC "-//W3C//DTD SVG 1.1//EN" "http://www.w3.org/Graphics/SVG/1.1/DTD/svg11.dtd">
<svg version="1.1" id="Layer_1" xmlns="http://www.w3.org/2000/svg" xmlns:xlink="http://www.w3.org/1999/xlink" x="0px" y="0px"
	 width="100px" height="100px" viewBox="0 0 100 100" enable-background="new 0 0 100 100" xml:space="preserve">
<g id="_3">
	<path fill="#28AAE1" d="M99.959,19.6c-3.75,1.626-7.719,2.693-11.777,3.166c4.256-2.487,7.461-6.438,9.019-11.114
		c-4.043,2.342-8.448,3.992-13.035,4.882c-7.839-8.102-20.701-8.492-29.017-0.88c-5.308,4.858-7.576,12.205-5.932,19.209
		c-16.413-0.77-31.75-8.392-42.275-21.009c-5.44,9.199-2.638,21.053,6.346,26.841c-3.253-0.102-6.437-0.967-9.295-2.524v0.249
		c0.074,9.658,6.964,17.918,16.453,19.721c-1.765,0.47-3.583,0.707-5.409,0.707c-1.295,0-2.587-0.124-3.859-0.371
		c2.773,8.252,10.459,13.85,19.164,13.957c-7.31,5.598-16.268,8.618-25.476,8.59c-1.637,0-3.273-0.09-4.9-0.267
		c9.416,5.925,20.318,9.061,31.443,9.043c32.009,0.224,58.134-25.032,58.362-56.407c0-0.268,0-0.531,0-0.8L89.7,29.988
		C93.721,27.176,97.197,23.656,99.959,19.6z"/>
</g>
</svg>
